<?xml version="1.0" encoding="utf-8" standalone="no"?>
<!DOCTYPE svg PUBLIC "-//W3C//DTD SVG 1.1//EN"
  "http://www.w3.org/Graphics/SVG/1.1/DTD/svg11.dtd">
<!-- Created with matplotlib (https://matplotlib.org/) -->
<svg height="72pt" version="1.1" viewBox="0 0 72 72" width="72pt" xmlns="http://www.w3.org/2000/svg" xmlns:xlink="http://www.w3.org/1999/xlink">
 <defs>
  <style type="text/css">
*{stroke-linecap:butt;stroke-linejoin:round;}
  </style>
 </defs>
 <g id="figure_1">
  <g id="patch_1">
   <path d="M 0 72 
L 72 72 
L 72 0 
L 0 0 
z
" style="fill:none;opacity:0;"/>
  </g>
  <g id="text_1">
   <!-- ï  -->
   <g transform="translate(6.855625 59.295625)scale(0.68 -0.68)">
    <defs>
     <path d="M 85.71875 35.71875 
C 85.71875 39.515625 83.203125 42.859375 79.1875 42.859375 
L 39.90625 42.859375 
L 56.25 59.203125 
C 57.59375 60.546875 58.375 62.390625 58.375 64.28125 
C 58.375 66.1875 57.59375 68.03125 56.25 69.359375 
L 52.0625 73.5 
C 50.71875 74.828125 48.9375 75.609375 47.046875 75.609375 
C 45.140625 75.609375 43.296875 74.828125 41.96875 73.5 
L 5.640625 37.21875 
C 4.359375 35.875 3.578125 34.046875 3.578125 32.140625 
C 3.578125 30.25 4.359375 28.40625 5.640625 27.125 
L 41.96875 -9.265625 
C 43.296875 -10.546875 45.140625 -11.328125 47.046875 -11.328125 
C 48.9375 -11.328125 50.78125 -10.546875 52.0625 -9.265625 
L 56.25 -5.015625 
C 57.59375 -3.734375 58.375 -1.890625 58.375 0 
C 58.375 1.890625 57.59375 3.734375 56.25 5.015625 
L 39.90625 21.421875 
L 79.1875 21.421875 
C 83.203125 21.421875 85.71875 24.78125 85.71875 28.578125 
z
" id="FontAwesome-61536"/>
    </defs>
    <use xlink:href="#FontAwesome-61536"/>
   </g>
  </g>
 </g>
</svg>
