<?xml version="1.0" encoding="utf-8" standalone="no"?>
<!DOCTYPE svg PUBLIC "-//W3C//DTD SVG 1.1//EN"
  "http://www.w3.org/Graphics/SVG/1.1/DTD/svg11.dtd">
<!-- Created with matplotlib (https://matplotlib.org/) -->
<svg height="72pt" version="1.1" viewBox="0 0 72 72" width="72pt" xmlns="http://www.w3.org/2000/svg" xmlns:xlink="http://www.w3.org/1999/xlink">
 <defs>
  <style type="text/css">
*{stroke-linecap:butt;stroke-linejoin:round;}
  </style>
 </defs>
 <g id="figure_1">
  <g id="patch_1">
   <path d="M 0 72 
L 72 72 
L 72 0 
L 0 0 
z
" style="fill:none;opacity:0;"/>
  </g>
  <g id="text_1">
   <!--  -->
   <g transform="translate(6.855625 61.72875)scale(0.68 -0.68)">
    <defs>
     <path d="M 21.421875 0 
L 21.421875 21.421875 
L 64.28125 21.421875 
L 64.28125 0 
z
M 71.421875 0 
L 71.421875 23.21875 
C 71.421875 26.171875 69.03125 28.578125 66.078125 28.578125 
L 19.640625 28.578125 
C 16.6875 28.578125 14.28125 26.171875 14.28125 23.21875 
L 14.28125 0 
L 7.140625 0 
L 7.140625 71.421875 
L 14.28125 71.421875 
L 14.28125 48.21875 
C 14.28125 45.25 16.6875 42.859375 19.640625 42.859375 
L 51.78125 42.859375 
C 54.75 42.859375 57.140625 45.25 57.140625 48.21875 
L 57.140625 71.421875 
C 58.265625 71.421875 60.4375 70.53125 61.21875 69.75 
L 76.890625 54.078125 
C 77.625 53.34375 78.578125 51.0625 78.578125 50 
L 78.578125 0 
z
M 50 51.78125 
C 50 50.84375 49.15625 50 48.21875 50 
L 37.5 50 
C 36.546875 50 35.71875 50.84375 35.71875 51.78125 
L 35.71875 69.640625 
C 35.71875 70.59375 36.546875 71.421875 37.5 71.421875 
L 48.21875 71.421875 
C 49.15625 71.421875 50 70.59375 50 69.640625 
z
M 85.71875 50 
C 85.71875 52.953125 84.046875 57.03125 81.921875 59.15625 
L 66.296875 74.78125 
C 64.171875 76.890625 60.09375 78.578125 57.140625 78.578125 
L 5.359375 78.578125 
C 2.40625 78.578125 0 76.171875 0 73.21875 
L 0 -1.78125 
C 0 -4.75 2.40625 -7.140625 5.359375 -7.140625 
L 80.359375 -7.140625 
C 83.3125 -7.140625 85.71875 -4.75 85.71875 -1.78125 
z
" id="FontAwesome-61639"/>
    </defs>
    <use xlink:href="#FontAwesome-61639"/>
   </g>
  </g>
 </g>
</svg>
