<?xml version="1.0" encoding="utf-8" standalone="no"?>
<!DOCTYPE svg PUBLIC "-//W3C//DTD SVG 1.1//EN"
  "http://www.w3.org/Graphics/SVG/1.1/DTD/svg11.dtd">
<!-- Created with matplotlib (https://matplotlib.org/) -->
<svg height="72pt" version="1.1" viewBox="0 0 72 72" width="72pt" xmlns="http://www.w3.org/2000/svg" xmlns:xlink="http://www.w3.org/1999/xlink">
 <defs>
  <style type="text/css">
*{stroke-linecap:butt;stroke-linejoin:round;}
  </style>
 </defs>
 <g id="figure_1">
  <g id="patch_1">
   <path d="M 0 72 
L 72 72 
L 72 0 
L 0 0 
z
" style="fill:none;opacity:0;"/>
  </g>
  <g id="text_1">
   <!-- ï¡ -->
   <g transform="translate(6.855625 59.295625)scale(0.68 -0.68)">
    <defs>
     <path d="M 82.140625 32.140625 
C 82.140625 34.046875 81.421875 35.875 80.078125 37.171875 
L 43.75 73.5 
C 42.40625 74.828125 40.5625 75.609375 38.671875 75.609375 
C 36.78125 75.609375 34.984375 74.828125 33.65625 73.5 
L 29.46875 69.3125 
C 28.125 68.03125 27.34375 66.1875 27.34375 64.28125 
C 27.34375 62.390625 28.125 60.546875 29.46875 59.265625 
L 45.8125 42.859375 
L 6.53125 42.859375 
C 2.515625 42.859375 0 39.515625 0 35.71875 
L 0 28.578125 
C 0 24.78125 2.515625 21.421875 6.53125 21.421875 
L 45.8125 21.421875 
L 29.46875 5.078125 
C 28.125 3.734375 27.34375 1.890625 27.34375 0 
C 27.34375 -1.890625 28.125 -3.734375 29.46875 -5.078125 
L 33.65625 -9.265625 
C 34.984375 -10.546875 36.78125 -11.328125 38.671875 -11.328125 
C 40.5625 -11.328125 42.40625 -10.546875 43.75 -9.265625 
L 80.078125 27.0625 
C 81.421875 28.40625 82.140625 30.25 82.140625 32.140625 
z
" id="FontAwesome-61537"/>
    </defs>
    <use xlink:href="#FontAwesome-61537"/>
   </g>
  </g>
 </g>
</svg>
