<?xml version="1.0" encoding="utf-8" standalone="no"?>
<!DOCTYPE svg PUBLIC "-//W3C//DTD SVG 1.1//EN"
  "http://www.w3.org/Graphics/SVG/1.1/DTD/svg11.dtd">
<!-- Created with matplotlib (https://matplotlib.org/) -->
<svg height="72pt" version="1.1" viewBox="0 0 72 72" width="72pt" xmlns="http://www.w3.org/2000/svg" xmlns:xlink="http://www.w3.org/1999/xlink">
 <defs>
  <style type="text/css">
*{stroke-linecap:butt;stroke-linejoin:round;}
  </style>
 </defs>
 <g id="figure_1">
  <g id="patch_1">
   <path d="M 0 72 
L 72 72 
L 72 0 
L 0 0 
z
" style="fill:none;opacity:0;"/>
  </g>
  <g id="text_1">
   <!--  -->
   <g transform="translate(16.572187 66.584375)scale(0.68 -0.68)">
    <defs>
     <path d="M 39.28125 15.625 
C 39.28125 16.859375 38.28125 17.859375 37.046875 17.859375 
L 23.65625 17.859375 
C 22.4375 17.859375 21.421875 16.859375 21.421875 15.625 
L 21.421875 2.234375 
C 21.421875 1 22.4375 0 23.65625 0 
L 37.046875 0 
C 38.28125 0 39.28125 1 39.28125 2.234375 
z
M 56.921875 49.109375 
C 56.921875 61.890625 43.53125 71.421875 31.578125 71.421875 
C 20.203125 71.421875 11.71875 66.578125 5.6875 56.578125 
C 5.078125 55.578125 5.296875 54.359375 6.25 53.625 
L 15.40625 46.65625 
C 15.84375 46.375 16.296875 46.203125 16.796875 46.203125 
C 17.40625 46.203125 18.078125 46.546875 18.53125 47.09375 
C 21.8125 51.234375 23.15625 52.5625 24.5 53.515625 
C 25.71875 54.359375 28.015625 55.140625 30.53125 55.140625 
C 35.046875 55.140625 39.125 52.34375 39.125 49.21875 
C 39.125 45.640625 37.328125 43.8125 33.03125 41.859375 
C 28.125 39.625 21.421875 33.8125 21.421875 27.0625 
L 21.421875 24.546875 
C 21.421875 23.328125 22.203125 21.421875 23.4375 21.421875 
L 36.828125 21.421875 
C 38.109375 21.421875 39.0625 22.875 39.0625 24.109375 
C 39.0625 25.71875 41.125 29.578125 44.421875 31.46875 
C 49.71875 34.4375 56.921875 38.5 56.921875 49.109375 
z
" id="FontAwesome-61736"/>
    </defs>
    <use xlink:href="#FontAwesome-61736"/>
   </g>
  </g>
 </g>
</svg>
