<?xml version="1.0" encoding="utf-8" standalone="no"?>
<!DOCTYPE svg PUBLIC "-//W3C//DTD SVG 1.1//EN"
  "http://www.w3.org/Graphics/SVG/1.1/DTD/svg11.dtd">
<!-- Created with matplotlib (https://matplotlib.org/) -->
<svg height="72pt" version="1.1" viewBox="0 0 72 72" width="72pt" xmlns="http://www.w3.org/2000/svg" xmlns:xlink="http://www.w3.org/1999/xlink">
 <defs>
  <style type="text/css">
*{stroke-linecap:butt;stroke-linejoin:round;}
  </style>
 </defs>
 <g id="figure_1">
  <g id="patch_1">
   <path d="M 0 72 
L 72 72 
L 72 0 
L 0 0 
z
" style="fill:none;opacity:0;"/>
  </g>
  <g id="text_1">
   <!--  -->
   <g transform="translate(4.427812 66.584375)scale(0.68 -0.68)">
    <defs>
     <path d="M 78.578125 30.359375 
C 78.578125 30.46875 78.578125 30.578125 78.515625 30.6875 
L 46.421875 57.140625 
L 14.34375 30.6875 
C 14.34375 30.578125 14.28125 30.46875 14.28125 30.359375 
L 14.28125 3.578125 
C 14.28125 1.625 15.90625 0 17.859375 0 
L 39.28125 0 
L 39.28125 21.421875 
L 53.578125 21.421875 
L 53.578125 0 
L 75 0 
C 76.953125 0 78.578125 1.625 78.578125 3.578125 
z
M 91.015625 34.203125 
C 91.625 34.9375 91.515625 36.109375 90.796875 36.71875 
L 78.578125 46.875 
L 78.578125 69.640625 
C 78.578125 70.640625 77.796875 71.421875 76.78125 71.421875 
L 66.078125 71.421875 
C 65.0625 71.421875 64.28125 70.640625 64.28125 69.640625 
L 64.28125 58.765625 
L 50.671875 70.140625 
C 48.328125 72.09375 44.53125 72.09375 42.1875 70.140625 
L 2.0625 36.71875 
C 1.34375 36.109375 1.234375 34.9375 1.84375 34.203125 
L 5.296875 30.078125 
C 5.578125 29.75 6.03125 29.515625 6.46875 29.46875 
C 6.96875 29.40625 7.421875 29.578125 7.8125 29.859375 
L 46.421875 62.046875 
L 85.046875 29.859375 
C 85.375 29.578125 85.765625 29.46875 86.21875 29.46875 
C 86.265625 29.46875 86.328125 29.46875 86.390625 29.46875 
C 86.828125 29.515625 87.28125 29.75 87.5625 30.078125 
z
" id="FontAwesome-61461"/>
    </defs>
    <use xlink:href="#FontAwesome-61461"/>
   </g>
  </g>
 </g>
</svg>
