<?xml version="1.0" encoding="utf-8" standalone="no"?>
<!DOCTYPE svg PUBLIC "-//W3C//DTD SVG 1.1//EN"
  "http://www.w3.org/Graphics/SVG/1.1/DTD/svg11.dtd">
<!-- Created with matplotlib (https://matplotlib.org/) -->
<svg height="72pt" version="1.1" viewBox="0 0 72 72" width="72pt" xmlns="http://www.w3.org/2000/svg" xmlns:xlink="http://www.w3.org/1999/xlink">
 <defs>
  <style type="text/css">
*{stroke-linecap:butt;stroke-linejoin:round;}
  </style>
 </defs>
 <g id="figure_1">
  <g id="patch_1">
   <path d="M 0 72 
L 72 72 
L 72 0 
L 0 0 
z
" style="fill:none;opacity:0;"/>
  </g>
  <g id="axes_1">
   <g id="patch_2">
    <path d="M 70.2 36 
C 70.2 31.508897 69.315351 27.061465 67.59668 22.912227 
C 65.878009 18.762989 63.358741 14.992637 60.183052 11.816948 
C 57.007363 8.641259 53.237011 6.121991 49.087773 4.40332 
C 44.938535 2.684649 40.491103 1.8 36 1.8 
C 31.508897 1.8 27.061465 2.684649 22.912227 4.40332 
C 18.762989 6.121991 14.992637 8.641259 11.816948 11.816948 
C 8.641259 14.992637 6.121991 18.762989 4.40332 22.912227 
C 2.684649 27.061465 1.8 31.508897 1.8 36 
C 1.8 40.491103 2.684649 44.938535 4.40332 49.087773 
C 6.121991 53.237011 8.641259 57.007363 11.816948 60.183052 
C 14.992637 63.358741 18.762989 65.878009 22.912227 67.59668 
C 27.061465 69.315351 31.508897 70.2 36 70.2 
C 40.491103 70.2 44.938535 69.315351 49.087773 67.59668 
C 53.237011 65.878009 57.007363 63.358741 60.183052 60.183052 
C 63.358741 57.007363 65.878009 53.237011 67.59668 49.087773 
C 69.315351 44.938535 70.2 40.491103 70.2 36 
M 36 36 
C 36 36 36 36 36 36 
C 36 36 36 36 36 36 
C 36 36 36 36 36 36 
C 36 36 36 36 36 36 
C 36 36 36 36 36 36 
C 36 36 36 36 36 36 
C 36 36 36 36 36 36 
C 36 36 36 36 36 36 
C 36 36 36 36 36 36 
C 36 36 36 36 36 36 
C 36 36 36 36 36 36 
C 36 36 36 36 36 36 
C 36 36 36 36 36 36 
C 36 36 36 36 36 36 
C 36 36 36 36 36 36 
C 36 36 36 36 36 36 
M 70.2 36 
z
" style="fill:#ffffff;"/>
   </g>
   <g id="matplotlib.axis_1">
    <g id="xtick_1">
     <g id="line2d_1">
      <path clip-path="url(#p3ca8982bed)" d="M 36 36 
L 70.2 36 
" style="fill:none;"/>
     </g>
    </g>
    <g id="xtick_2">
     <g id="line2d_2">
      <path clip-path="url(#p3ca8982bed)" d="M 36 36 
L 60.183052 11.816948 
" style="fill:none;"/>
     </g>
    </g>
    <g id="xtick_3">
     <g id="line2d_3">
      <path clip-path="url(#p3ca8982bed)" d="M 36 36 
L 36 1.8 
" style="fill:none;"/>
     </g>
    </g>
    <g id="xtick_4">
     <g id="line2d_4">
      <path clip-path="url(#p3ca8982bed)" d="M 36 36 
L 11.816948 11.816948 
" style="fill:none;"/>
     </g>
    </g>
    <g id="xtick_5">
     <g id="line2d_5">
      <path clip-path="url(#p3ca8982bed)" d="M 36 36 
L 1.8 36 
" style="fill:none;"/>
     </g>
    </g>
    <g id="xtick_6">
     <g id="line2d_6">
      <path clip-path="url(#p3ca8982bed)" d="M 36 36 
L 11.816948 60.183052 
" style="fill:none;"/>
     </g>
    </g>
    <g id="xtick_7">
     <g id="line2d_7">
      <path clip-path="url(#p3ca8982bed)" d="M 36 36 
L 36 70.2 
" style="fill:none;"/>
     </g>
    </g>
    <g id="xtick_8">
     <g id="line2d_8">
      <path clip-path="url(#p3ca8982bed)" d="M 36 36 
L 60.183052 60.183052 
" style="fill:none;"/>
     </g>
    </g>
   </g>
   <g id="matplotlib.axis_2">
    <g id="ytick_1">
     <g id="line2d_9">
      <path clip-path="url(#p3ca8982bed)" d="M 39.8 36 
C 39.8 35.500989 39.701706 35.006829 39.510742 34.545803 
C 39.319779 34.084777 39.03986 33.665849 38.687006 33.312994 
C 38.334151 32.96014 37.915223 32.680221 37.454197 32.489258 
C 36.993171 32.298294 36.499011 32.2 36 32.2 
C 35.500989 32.2 35.006829 32.298294 34.545803 32.489258 
C 34.084777 32.680221 33.665849 32.96014 33.312994 33.312994 
C 32.96014 33.665849 32.680221 34.084777 32.489258 34.545803 
C 32.298294 35.006829 32.2 35.500989 32.2 36 
C 32.2 36.499011 32.298294 36.993171 32.489258 37.454197 
C 32.680221 37.915223 32.96014 38.334151 33.312994 38.687006 
C 33.665849 39.03986 34.084777 39.319779 34.545803 39.510742 
C 35.006829 39.701706 35.500989 39.8 36 39.8 
C 36.499011 39.8 36.993171 39.701706 37.454197 39.510742 
C 37.915223 39.319779 38.334151 39.03986 38.687006 38.687006 
C 39.03986 38.334151 39.319779 37.915223 39.510742 37.454197 
C 39.701706 36.993171 39.8 36.499011 39.8 36 
" style="fill:none;"/>
     </g>
    </g>
    <g id="ytick_2">
     <g id="line2d_10">
      <path clip-path="url(#p3ca8982bed)" d="M 47.4 36 
C 47.4 34.502966 47.105117 33.020488 46.532227 31.637409 
C 45.959336 30.25433 45.11958 28.997546 44.061017 27.938983 
C 43.002454 26.88042 41.74567 26.040664 40.362591 25.467773 
C 38.979512 24.894883 37.497034 24.6 36 24.6 
C 34.502966 24.6 33.020488 24.894883 31.637409 25.467773 
C 30.25433 26.040664 28.997546 26.88042 27.938983 27.938983 
C 26.88042 28.997546 26.040664 30.25433 25.467773 31.637409 
C 24.894883 33.020488 24.6 34.502966 24.6 36 
C 24.6 37.497034 24.894883 38.979512 25.467773 40.362591 
C 26.040664 41.74567 26.88042 43.002454 27.938983 44.061017 
C 28.997546 45.11958 30.25433 45.959336 31.637409 46.532227 
C 33.020488 47.105117 34.502966 47.4 36 47.4 
C 37.497034 47.4 38.979512 47.105117 40.362591 46.532227 
C 41.74567 45.959336 43.002454 45.11958 44.061017 44.061017 
C 45.11958 43.002454 45.959336 41.74567 46.532227 40.362591 
C 47.105117 38.979512 47.4 37.497034 47.4 36 
" style="fill:none;"/>
     </g>
    </g>
    <g id="ytick_3">
     <g id="line2d_11">
      <path clip-path="url(#p3ca8982bed)" d="M 55 36 
C 55 33.504943 54.508528 31.034147 53.553711 28.729015 
C 52.598894 26.423883 51.199301 24.329243 49.435029 22.564971 
C 47.670757 20.800699 45.576117 19.401106 43.270985 18.446289 
C 40.965853 17.491472 38.495057 17 36 17 
C 33.504943 17 31.034147 17.491472 28.729015 18.446289 
C 26.423883 19.401106 24.329243 20.800699 22.564971 22.564971 
C 20.800699 24.329243 19.401106 26.423883 18.446289 28.729015 
C 17.491472 31.034147 17 33.504943 17 36 
C 17 38.495057 17.491472 40.965853 18.446289 43.270985 
C 19.401106 45.576117 20.800699 47.670757 22.564971 49.435029 
C 24.329243 51.199301 26.423883 52.598894 28.729015 53.553711 
C 31.034147 54.508528 33.504943 55 36 55 
C 38.495057 55 40.965853 54.508528 43.270985 53.553711 
C 45.576117 52.598894 47.670757 51.199301 49.435029 49.435029 
C 51.199301 47.670757 52.598894 45.576117 53.553711 43.270985 
C 54.508528 40.965853 55 38.495057 55 36 
" style="fill:none;"/>
     </g>
    </g>
    <g id="ytick_4">
     <g id="line2d_12">
      <path clip-path="url(#p3ca8982bed)" d="M 62.6 36 
C 62.6 32.50692 61.911939 29.047806 60.575196 25.820621 
C 59.238452 22.593436 57.279021 19.66094 54.80904 17.19096 
C 52.33906 14.720979 49.406564 12.761548 46.179379 11.424804 
C 42.952194 10.088061 39.49308 9.4 36 9.4 
C 32.50692 9.4 29.047806 10.088061 25.820621 11.424804 
C 22.593436 12.761548 19.66094 14.720979 17.19096 17.19096 
C 14.720979 19.66094 12.761548 22.593436 11.424804 25.820621 
C 10.088061 29.047806 9.4 32.50692 9.4 36 
C 9.4 39.49308 10.088061 42.952194 11.424804 46.179379 
C 12.761548 49.406564 14.720979 52.33906 17.19096 54.80904 
C 19.66094 57.279021 22.593436 59.238452 25.820621 60.575196 
C 29.047806 61.911939 32.50692 62.6 36 62.6 
C 39.49308 62.6 42.952194 61.911939 46.179379 60.575196 
C 49.406564 59.238452 52.33906 57.279021 54.80904 54.80904 
C 57.279021 52.33906 59.238452 49.406564 60.575196 46.179379 
C 61.911939 42.952194 62.6 39.49308 62.6 36 
" style="fill:none;"/>
     </g>
    </g>
   </g>
   <g id="patch_3">
    <path clip-path="url(#p3ca8982bed)" d="M 36 36 
C 36 36 36 36 36 36 
C 36 36 36 36 36 36 
L 43.506431 34.811098 
C 43.568714 35.204336 43.6 35.60186 43.6 36 
C 43.6 36.39814 43.568714 36.795664 43.506431 37.188902 
z
" style="fill:#004cff;stroke:#000000;stroke-linejoin:miter;"/>
   </g>
   <g id="patch_4">
    <path clip-path="url(#p3ca8982bed)" d="M 36 36 
C 36 36 36 36 36 36 
C 36 36 36 36 36 36 
L 47.251987 16.169902 
C 48.290822 16.759358 49.281733 17.429534 50.215567 18.174242 
C 51.149402 18.91895 52.023274 19.735889 52.829113 20.617512 
z
" style="fill:#ceff29;stroke:#000000;stroke-linejoin:miter;"/>
   </g>
   <g id="patch_5">
    <path clip-path="url(#p3ca8982bed)" d="M 36 36 
C 36 36 36 36 36 36 
C 36 36 36 36 36 36 
L 22.503462 8.760259 
C 24.645338 7.699019 26.904927 6.894099 29.235364 6.362191 
C 31.565801 5.830284 33.950862 5.575094 36.34108 5.601913 
z
" style="fill:#ff6800;stroke:#000000;stroke-linejoin:miter;"/>
   </g>
   <g id="patch_6">
    <path clip-path="url(#p3ca8982bed)" d="M 36 36 
C 36 36 36 36 36 36 
C 36 36 36 36 36 36 
L 9.640736 32.429395 
C 10.015416 29.663396 10.823146 26.973531 12.034228 24.458693 
C 13.245311 21.943854 14.844721 19.635242 16.773657 17.617734 
z
" style="fill:#ffc400;stroke:#000000;stroke-linejoin:miter;"/>
   </g>
   <g id="patch_7">
    <path clip-path="url(#p3ca8982bed)" d="M 36 36 
C 36 36 36 36 36 36 
C 36 36 36 36 36 36 
L 22.86493 43.649178 
C 22.664649 43.305259 22.477953 42.953606 22.305273 42.595033 
C 22.132593 42.23646 21.974063 41.871243 21.830049 41.500227 
z
" style="fill:#29ffce;stroke:#000000;stroke-linejoin:miter;"/>
   </g>
   <g id="patch_8">
    <path clip-path="url(#p3ca8982bed)" d="M 36 36 
C 36 36 36 36 36 36 
C 36 36 36 36 36 36 
L 35.467121 54.992526 
C 34.223066 54.957621 32.985444 54.800568 31.772102 54.52363 
C 30.558761 54.246693 29.375559 53.851209 28.239559 53.342882 
z
" style="fill:#7dff7a;stroke:#000000;stroke-linejoin:miter;"/>
   </g>
   <g id="patch_9">
    <path clip-path="url(#p3ca8982bed)" d="M 36 36 
C 36 36 36 36 36 36 
C 36 36 36 36 36 36 
L 57.6163 57.375116 
C 56.776658 58.224231 55.887714 59.023137 54.95409 59.767677 
C 54.020466 60.512218 53.043782 61.201101 52.029118 61.830745 
z
" style="fill:#ff6800;stroke:#000000;stroke-linejoin:miter;"/>
   </g>
   <g id="patch_10">
    <path d="M 70.2 36 
C 70.2 31.508897 69.315351 27.061465 67.59668 22.912227 
C 65.878009 18.762989 63.358741 14.992637 60.183052 11.816948 
C 57.007363 8.641259 53.237011 6.121991 49.087773 4.40332 
C 44.938535 2.684649 40.491103 1.8 36 1.8 
C 31.508897 1.8 27.061465 2.684649 22.912227 4.40332 
C 18.762989 6.121991 14.992637 8.641259 11.816948 11.816948 
C 8.641259 14.992637 6.121991 18.762989 4.40332 22.912227 
C 2.684649 27.061465 1.8 31.508897 1.8 36 
C 1.8 40.491103 2.684649 44.938535 4.40332 49.087773 
C 6.121991 53.237011 8.641259 57.007363 11.816948 60.183052 
C 14.992637 63.358741 18.762989 65.878009 22.912227 67.59668 
C 27.061465 69.315351 31.508897 70.2 36 70.2 
C 40.491103 70.2 44.938535 69.315351 49.087773 67.59668 
C 53.237011 65.878009 57.007363 63.358741 60.183052 60.183052 
C 63.358741 57.007363 65.878009 53.237011 67.59668 49.087773 
C 69.315351 44.938535 70.2 40.491103 70.2 36 
" style="fill:none;stroke:#000000;stroke-linecap:square;stroke-linejoin:miter;stroke-width:0.8;"/>
   </g>
  </g>
 </g>
 <defs>
  <clipPath id="p3ca8982bed">
   <path d="M 70.2 36 
C 70.2 31.508897 69.315351 27.061465 67.59668 22.912227 
C 65.878009 18.762989 63.358741 14.992637 60.183052 11.816948 
C 57.007363 8.641259 53.237011 6.121991 49.087773 4.40332 
C 44.938535 2.684649 40.491103 1.8 36 1.8 
C 31.508897 1.8 27.061465 2.684649 22.912227 4.40332 
C 18.762989 6.121991 14.992637 8.641259 11.816948 11.816948 
C 8.641259 14.992637 6.121991 18.762989 4.40332 22.912227 
C 2.684649 27.061465 1.8 31.508897 1.8 36 
C 1.8 40.491103 2.684649 44.938535 4.40332 49.087773 
C 6.121991 53.237011 8.641259 57.007363 11.816948 60.183052 
C 14.992637 63.358741 18.762989 65.878009 22.912227 67.59668 
C 27.061465 69.315351 31.508897 70.2 36 70.2 
C 40.491103 70.2 44.938535 69.315351 49.087773 67.59668 
C 53.237011 65.878009 57.007363 63.358741 60.183052 60.183052 
C 63.358741 57.007363 65.878009 53.237011 67.59668 49.087773 
C 69.315351 44.938535 70.2 40.491103 70.2 36 
M 36 36 
C 36 36 36 36 36 36 
C 36 36 36 36 36 36 
C 36 36 36 36 36 36 
C 36 36 36 36 36 36 
C 36 36 36 36 36 36 
C 36 36 36 36 36 36 
C 36 36 36 36 36 36 
C 36 36 36 36 36 36 
C 36 36 36 36 36 36 
C 36 36 36 36 36 36 
C 36 36 36 36 36 36 
C 36 36 36 36 36 36 
C 36 36 36 36 36 36 
C 36 36 36 36 36 36 
C 36 36 36 36 36 36 
C 36 36 36 36 36 36 
M 70.2 36 
z
"/>
  </clipPath>
 </defs>
</svg>
