<?xml version="1.0" encoding="utf-8" standalone="no"?>
<!DOCTYPE svg PUBLIC "-//W3C//DTD SVG 1.1//EN"
  "http://www.w3.org/Graphics/SVG/1.1/DTD/svg11.dtd">
<!-- Created with matplotlib (https://matplotlib.org/) -->
<svg height="72pt" version="1.1" viewBox="0 0 72 72" width="72pt" xmlns="http://www.w3.org/2000/svg" xmlns:xlink="http://www.w3.org/1999/xlink">
 <defs>
  <style type="text/css">
*{stroke-linecap:butt;stroke-linejoin:round;}
  </style>
 </defs>
 <g id="figure_1">
  <g id="patch_1">
   <path d="M 0 72 
L 72 72 
L 72 0 
L 0 0 
z
" style="fill:none;opacity:0;"/>
  </g>
  <g id="text_1">
   <!-- ï‡ -->
   <g transform="translate(2 61.72875)scale(0.68 -0.68)">
    <defs>
     <path d="M 100 35.71875 
C 100 36.65625 99.609375 37.5625 98.9375 38.21875 
L 84.65625 52.515625 
C 83.984375 53.1875 83.09375 53.578125 82.140625 53.578125 
C 80.1875 53.578125 78.578125 51.953125 78.578125 50 
L 78.578125 42.859375 
L 57.140625 42.859375 
L 57.140625 64.28125 
L 64.28125 64.28125 
C 66.234375 64.28125 67.859375 65.90625 67.859375 67.859375 
C 67.859375 68.8125 67.46875 69.703125 66.796875 70.375 
L 52.515625 84.65625 
C 51.84375 85.328125 50.953125 85.71875 50 85.71875 
C 49.046875 85.71875 48.15625 85.328125 47.484375 84.65625 
L 33.203125 70.375 
C 32.53125 69.703125 32.140625 68.8125 32.140625 67.859375 
C 32.140625 65.90625 33.765625 64.28125 35.71875 64.28125 
L 42.859375 64.28125 
L 42.859375 42.859375 
L 21.421875 42.859375 
L 21.421875 50 
C 21.421875 51.953125 19.8125 53.578125 17.859375 53.578125 
C 16.90625 53.578125 16.015625 53.1875 15.34375 52.515625 
L 1.0625 38.21875 
C 0.390625 37.5625 0 36.65625 0 35.71875 
C 0 34.765625 0.390625 33.875 1.0625 33.203125 
L 15.34375 18.921875 
C 16.015625 18.25 16.90625 17.859375 17.859375 17.859375 
C 19.8125 17.859375 21.421875 19.46875 21.421875 21.421875 
L 21.421875 28.578125 
L 42.859375 28.578125 
L 42.859375 7.140625 
L 35.71875 7.140625 
C 33.765625 7.140625 32.140625 5.53125 32.140625 3.578125 
C 32.140625 2.625 32.53125 1.734375 33.203125 1.0625 
L 47.484375 -13.21875 
C 48.15625 -13.890625 49.046875 -14.28125 50 -14.28125 
C 50.953125 -14.28125 51.84375 -13.890625 52.515625 -13.21875 
L 66.796875 1.0625 
C 67.46875 1.734375 67.859375 2.625 67.859375 3.578125 
C 67.859375 5.53125 66.234375 7.140625 64.28125 7.140625 
L 57.140625 7.140625 
L 57.140625 28.578125 
L 78.578125 28.578125 
L 78.578125 21.421875 
C 78.578125 19.46875 80.1875 17.859375 82.140625 17.859375 
C 83.09375 17.859375 83.984375 18.25 84.65625 18.921875 
L 98.9375 33.203125 
C 99.609375 33.875 100 34.765625 100 35.71875 
z
" id="FontAwesome-61511"/>
    </defs>
    <use xlink:href="#FontAwesome-61511"/>
   </g>
  </g>
 </g>
</svg>
