<?xml version="1.0" encoding="utf-8" standalone="no"?>
<!DOCTYPE svg PUBLIC "-//W3C//DTD SVG 1.1//EN"
  "http://www.w3.org/Graphics/SVG/1.1/DTD/svg11.dtd">
<!-- Created with matplotlib (https://matplotlib.org/) -->
<svg height="72pt" version="1.1" viewBox="0 0 72 72" width="72pt" xmlns="http://www.w3.org/2000/svg" xmlns:xlink="http://www.w3.org/1999/xlink">
 <defs>
  <style type="text/css">
*{stroke-linecap:butt;stroke-linejoin:round;}
  </style>
 </defs>
 <g id="figure_1">
  <g id="patch_1">
   <path d="M 0 72 
L 72 72 
L 72 0 
L 0 0 
z
" style="fill:none;opacity:0;"/>
  </g>
  <g id="text_1">
   <!-- ïˆ -->
   <g transform="translate(-2.855625 61.72875)scale(0.68 -0.68)">
    <defs>
     <path d="M 114.28125 0 
L 7.140625 0 
L 7.140625 78.578125 
L 0 78.578125 
L 0 -7.140625 
L 114.28125 -7.140625 
z
M 107.140625 69.640625 
C 107.140625 70.640625 106.359375 71.421875 105.359375 71.421875 
L 81.078125 71.421875 
C 79.515625 71.421875 78.6875 69.53125 79.859375 68.359375 
L 86.609375 61.609375 
L 60.71875 35.71875 
L 47.71875 48.71875 
C 46.984375 49.4375 45.875 49.4375 45.140625 48.71875 
L 12.5 16.078125 
L 23.21875 5.359375 
L 46.421875 28.578125 
L 59.4375 15.5625 
C 60.15625 14.84375 61.265625 14.84375 62 15.5625 
L 97.328125 50.890625 
L 104.078125 44.140625 
C 105.25 42.96875 107.140625 43.8125 107.140625 45.375 
z
" id="FontAwesome-61953"/>
    </defs>
    <use xlink:href="#FontAwesome-61953"/>
   </g>
  </g>
 </g>
</svg>
