<?xml version="1.0" encoding="utf-8" standalone="no"?>
<!DOCTYPE svg PUBLIC "-//W3C//DTD SVG 1.1//EN"
  "http://www.w3.org/Graphics/SVG/1.1/DTD/svg11.dtd">
<!-- Created with matplotlib (https://matplotlib.org/) -->
<svg height="72pt" version="1.1" viewBox="0 0 72 72" width="72pt" xmlns="http://www.w3.org/2000/svg" xmlns:xlink="http://www.w3.org/1999/xlink">
 <defs>
  <style type="text/css">
*{stroke-linecap:butt;stroke-linejoin:round;}
  </style>
 </defs>
 <g id="figure_1">
  <g id="patch_1">
   <path d="M 0 72 
L 72 72 
L 72 0 
L 0 0 
z
" style="fill:none;opacity:0;"/>
  </g>
  <g id="text_1">
   <!--  -->
   <g transform="translate(6.855625 61.72875)scale(0.68 -0.68)">
    <defs>
     <path d="M 19.640625 7.140625 
L 0 7.140625 
L 0 0 
L 19.640625 0 
z
M 39.28125 14.28125 
L 25 14.28125 
C 23.046875 14.28125 21.421875 12.671875 21.421875 10.71875 
L 21.421875 -3.578125 
C 21.421875 -5.53125 23.046875 -7.140625 25 -7.140625 
L 39.28125 -7.140625 
C 41.234375 -7.140625 42.859375 -5.53125 42.859375 -3.578125 
L 42.859375 10.71875 
C 42.859375 12.671875 41.234375 14.28125 39.28125 14.28125 
z
M 48.21875 35.71875 
L 0 35.71875 
L 0 28.578125 
L 48.21875 28.578125 
z
M 12.5 64.28125 
L 0 64.28125 
L 0 57.140625 
L 12.5 57.140625 
z
M 85.71875 7.140625 
L 44.640625 7.140625 
L 44.640625 0 
L 85.71875 0 
z
M 32.140625 71.421875 
L 17.859375 71.421875 
C 15.90625 71.421875 14.28125 69.8125 14.28125 67.859375 
L 14.28125 53.578125 
C 14.28125 51.625 15.90625 50 17.859375 50 
L 32.140625 50 
C 34.09375 50 35.71875 51.625 35.71875 53.578125 
L 35.71875 67.859375 
C 35.71875 69.8125 34.09375 71.421875 32.140625 71.421875 
z
M 67.859375 42.859375 
L 53.578125 42.859375 
C 51.625 42.859375 50 41.234375 50 39.28125 
L 50 25 
C 50 23.046875 51.625 21.421875 53.578125 21.421875 
L 67.859375 21.421875 
C 69.8125 21.421875 71.421875 23.046875 71.421875 25 
L 71.421875 39.28125 
C 71.421875 41.234375 69.8125 42.859375 67.859375 42.859375 
z
M 85.71875 35.71875 
L 73.21875 35.71875 
L 73.21875 28.578125 
L 85.71875 28.578125 
z
M 85.71875 64.28125 
L 37.5 64.28125 
L 37.5 57.140625 
L 85.71875 57.140625 
z
" id="FontAwesome-61918"/>
    </defs>
    <use xlink:href="#FontAwesome-61918"/>
   </g>
  </g>
 </g>
</svg>
