<?xml version="1.0" encoding="utf-8" standalone="no"?>
<!DOCTYPE svg PUBLIC "-//W3C//DTD SVG 1.1//EN"
  "http://www.w3.org/Graphics/SVG/1.1/DTD/svg11.dtd">
<!-- Created with matplotlib (https://matplotlib.org/) -->
<svg height="72pt" version="1.1" viewBox="0 0 72 72" width="72pt" xmlns="http://www.w3.org/2000/svg" xmlns:xlink="http://www.w3.org/1999/xlink">
 <defs>
  <style type="text/css">
*{stroke-linecap:butt;stroke-linejoin:round;}
  </style>
 </defs>
 <g id="figure_1">
  <g id="patch_1">
   <path d="M 0 72 
L 72 72 
L 72 0 
L 0 0 
z
" style="fill:none;opacity:0;"/>
  </g>
  <g id="text_1">
   <!--  -->
   <defs>
    <path d="M 14.28125 12.5 
C 14.28125 13.453125 13.453125 14.28125 12.5 14.28125 
L 1.78125 14.28125 
C 0.84375 14.28125 0 13.453125 0 12.5 
L 0 1.78125 
C 0 0.84375 0.84375 0 1.78125 0 
L 12.5 0 
C 13.453125 0 14.28125 0.84375 14.28125 1.78125 
z
M 14.28125 33.921875 
C 14.28125 34.875 13.453125 35.71875 12.5 35.71875 
L 1.78125 35.71875 
C 0.84375 35.71875 0 34.875 0 33.921875 
L 0 23.21875 
C 0 22.265625 0.84375 21.421875 1.78125 21.421875 
L 12.5 21.421875 
C 13.453125 21.421875 14.28125 22.265625 14.28125 23.21875 
z
M 14.28125 55.359375 
C 14.28125 56.3125 13.453125 57.140625 12.5 57.140625 
L 1.78125 57.140625 
C 0.84375 57.140625 0 56.3125 0 55.359375 
L 0 44.640625 
C 0 43.6875 0.84375 42.859375 1.78125 42.859375 
L 12.5 42.859375 
C 13.453125 42.859375 14.28125 43.6875 14.28125 44.640625 
z
M 100 12.5 
C 100 13.453125 99.15625 14.28125 98.21875 14.28125 
L 23.21875 14.28125 
C 22.265625 14.28125 21.421875 13.453125 21.421875 12.5 
L 21.421875 1.78125 
C 21.421875 0.84375 22.265625 0 23.21875 0 
L 98.21875 0 
C 99.15625 0 100 0.84375 100 1.78125 
z
M 14.28125 76.78125 
C 14.28125 77.734375 13.453125 78.578125 12.5 78.578125 
L 1.78125 78.578125 
C 0.84375 78.578125 0 77.734375 0 76.78125 
L 0 66.078125 
C 0 65.125 0.84375 64.28125 1.78125 64.28125 
L 12.5 64.28125 
C 13.453125 64.28125 14.28125 65.125 14.28125 66.078125 
z
M 100 33.921875 
C 100 34.875 99.15625 35.71875 98.21875 35.71875 
L 23.21875 35.71875 
C 22.265625 35.71875 21.421875 34.875 21.421875 33.921875 
L 21.421875 23.21875 
C 21.421875 22.265625 22.265625 21.421875 23.21875 21.421875 
L 98.21875 21.421875 
C 99.15625 21.421875 100 22.265625 100 23.21875 
z
M 100 55.359375 
C 100 56.3125 99.15625 57.140625 98.21875 57.140625 
L 23.21875 57.140625 
C 22.265625 57.140625 21.421875 56.3125 21.421875 55.359375 
L 21.421875 44.640625 
C 21.421875 43.6875 22.265625 42.859375 23.21875 42.859375 
L 98.21875 42.859375 
C 99.15625 42.859375 100 43.6875 100 44.640625 
z
M 100 76.78125 
C 100 77.734375 99.15625 78.578125 98.21875 78.578125 
L 23.21875 78.578125 
C 22.265625 78.578125 21.421875 77.734375 21.421875 76.78125 
L 21.421875 66.078125 
C 21.421875 65.125 22.265625 64.28125 23.21875 64.28125 
L 98.21875 64.28125 
C 99.15625 64.28125 100 65.125 100 66.078125 
z
" id="FontAwesome-61498"/>
   </defs>
   <g transform="translate(2 66.584375)scale(0.68 -0.68)">
    <use xlink:href="#FontAwesome-61498"/>
   </g>
  </g>
 </g>
</svg>
