<?xml version="1.0" encoding="utf-8" standalone="no"?>
<!DOCTYPE svg PUBLIC "-//W3C//DTD SVG 1.1//EN"
  "http://www.w3.org/Graphics/SVG/1.1/DTD/svg11.dtd">
<!-- Created with matplotlib (https://matplotlib.org/) -->
<svg height="72pt" version="1.1" viewBox="0 0 72 72" width="72pt" xmlns="http://www.w3.org/2000/svg" xmlns:xlink="http://www.w3.org/1999/xlink">
 <defs>
  <style type="text/css">
*{stroke-linecap:butt;stroke-linejoin:round;}
  </style>
 </defs>
 <g id="figure_1">
  <g id="patch_1">
   <path d="M 0 72 
L 72 72 
L 72 0 
L 0 0 
z
" style="fill:none;opacity:0;"/>
  </g>
  <g id="text_1">
   <!--  -->
   <g transform="translate(4.427812 59.300938)scale(0.68 -0.68)">
    <defs>
     <path d="M 64.28125 39.28125 
C 64.28125 25.5 53.0625 14.28125 39.28125 14.28125 
C 25.5 14.28125 14.28125 25.5 14.28125 39.28125 
C 14.28125 53.0625 25.5 64.28125 39.28125 64.28125 
C 53.0625 64.28125 64.28125 53.0625 64.28125 39.28125 
z
M 92.859375 -7.140625 
C 92.859375 -5.25 92.078125 -3.40625 90.796875 -2.125 
L 71.65625 17.015625 
C 76.171875 23.546875 78.578125 31.359375 78.578125 39.28125 
C 78.578125 61 61 78.578125 39.28125 78.578125 
C 17.578125 78.578125 0 61 0 39.28125 
C 0 17.578125 17.578125 0 39.28125 0 
C 47.203125 0 55.015625 2.40625 61.546875 6.921875 
L 80.6875 -12.171875 
C 81.96875 -13.5 83.8125 -14.28125 85.71875 -14.28125 
C 89.625 -14.28125 92.859375 -11.046875 92.859375 -7.140625 
z
" id="FontAwesome-61442"/>
    </defs>
    <use xlink:href="#FontAwesome-61442"/>
   </g>
  </g>
 </g>
</svg>
